<svg viewBox="0 0 200 80" xmlns="http://www.w3.org/2000/svg">
  <!-- BPM Logo - Berlin Product Managers -->
  <g fill="#ffffff">
    <!-- Rounded square brackets -->
    <path d="M10 10 Q10 5, 15 5 L25 5 L25 10 L18 10 Q15 10, 15 13 L15 67 Q15 70, 18 70 L25 70 L25 75 L15 75 Q10 75, 10 70 Z"/>
    <path d="M55 10 L55 5 L65 5 Q70 5, 70 10 L70 70 Q70 75, 65 75 L55 75 L55 70 L62 70 Q65 70, 65 67 L65 13 Q65 10, 62 10 Z"/>
    <!-- bpm text -->
    <text x="85" y="52" font-family="Arial, sans-serif" font-size="36" font-weight="bold">bpm</text>
  </g>
</svg>