<?xml version="1.0" encoding="UTF-8"?>
<svg id="Layer_1" data-name="Layer 1" xmlns="http://www.w3.org/2000/svg" version="1.1" viewBox="0 0 1000 291.9">
  <defs>
    <style>
      .cls-1 {
        fill: #f9f8f5;
        stroke-width: 0px;
      }
    </style>
  </defs>
  <g>
    <path class="cls-1" d="M193.5,131c-2.7,0-4.9.9-6.6,2.8-1.7,1.9-2.6,4.4-2.6,7.8s.9,5.9,2.6,7.8c1.7,1.9,3.9,2.8,6.6,2.8s4.9-.9,6.6-2.8c1.7-1.9,2.6-4.4,2.6-7.8s-.9-5.9-2.6-7.8c-1.7-1.9-3.9-2.8-6.6-2.8Z"/>
    <path class="cls-1" d="M146.6-.7C65.6-.7,0,65,0,145.9v146.6h146.6c81,0,146.6-65.6,146.6-146.6S227.6-.7,146.6-.7ZM126.8,158.8c-2.2,4.8-5.3,8.5-9.2,11.1-3.9,2.5-8.3,3.8-13.2,3.8s-7.6-.8-10.6-2.4c-2.9-1.7-5.1-4-6.7-6.9v38.6h-24.7v-92.7h24.7v8.6c1.6-2.9,3.8-5.1,6.7-6.8,3-1.7,6.5-2.6,10.6-2.6s9.3,1.3,13.2,3.9c3.9,2.5,7,6.2,9.2,11.1,2.3,4.8,3.4,10.5,3.4,17.1s-1.1,12.3-3.4,17.2ZM157.1,172.9h-24.7v-82.2h24.7v82.2ZM227.2,172.9h-24.6v-8.6c-1.6,2.9-3.8,5.2-6.8,6.9-3,1.6-6.5,2.4-10.6,2.4s-9.3-1.3-13.2-3.8c-3.9-2.6-7-6.3-9.3-11.1-2.2-4.9-3.3-10.6-3.3-17.2s1.1-12.3,3.3-17.1c2.3-4.9,5.4-8.6,9.3-11.1,3.9-2.6,8.3-3.9,13.2-3.9s7.6.9,10.6,2.6c3,1.6,5.2,3.9,6.8,6.8v-8.6h24.6v62.7Z"/>
    <path class="cls-1" d="M96.2,131c-2.7,0-4.9.9-6.6,2.8-1.7,1.9-2.6,4.4-2.6,7.8s.9,5.9,2.6,7.8c1.7,1.9,3.9,2.8,6.6,2.8s4.9-.9,6.6-2.8c1.7-1.9,2.6-4.4,2.6-7.8s-.9-5.9-2.6-7.8c-1.7-1.9-3.9-2.8-6.6-2.8Z"/>
  </g>
  <path class="cls-1" d="M396.2,46c8.6,0,15.2,2.1,19.8,6.4,4.6,4.2,7,9.5,7,15.9s-2.2,11.7-6.6,16.1c-4.4,4.4-11.1,6.5-20.1,6.5h-13.7v30.7h-12.4V46h26.1ZM382.5,81.2h13.7c4.7,0,8.2-1.1,10.6-3.4,2.3-2.2,3.5-5.4,3.5-9.4s-1.2-7.2-3.5-9.5c-2.3-2.2-5.8-3.4-10.6-3.4h-13.7v25.6Z"/>
  <path class="cls-1" d="M443.9,61.6v10.4c3.8-7.6,9.8-11.4,18-11.4v12.8h-3.2c-4.9,0-8.6,1.2-11.1,3.7-2.5,2.5-3.7,6.7-3.7,12.8v31.6h-12.4v-59.9h12.4Z"/>
  <path class="cls-1" d="M509,106.7c3.6-3.6,5.4-8.7,5.4-15.1s-1.8-11.5-5.3-15c-3.5-3.6-7.7-5.4-12.7-5.4s-9.2,1.8-12.6,5.4c-3.4,3.6-5.1,8.6-5.1,15.1s1.7,11.5,5,15.1c3.3,3.6,7.5,5.3,12.4,5.3s9.3-1.8,12.9-5.4ZM496,122.6c-8.7,0-15.9-2.8-21.5-8.5-5.7-5.7-8.5-13.2-8.5-22.4s2.9-16.8,8.7-22.4c5.9-5.7,13.2-8.6,21.9-8.6s16,2.9,21.8,8.6c5.9,5.7,8.8,13.1,8.8,22.3s-3,16.7-9,22.4c-6,5.7-13.3,8.6-22.1,8.6Z"/>
  <path class="cls-1" d="M575.6,106.4c3.6-3.7,5.4-8.6,5.4-14.8s-1.8-11.1-5.4-14.7c-3.6-3.6-7.8-5.4-12.7-5.4s-9.2,1.8-12.8,5.3c-3.6,3.6-5.3,8.4-5.3,14.6s1.8,11.1,5.3,14.9c3.6,3.7,7.9,5.5,12.8,5.5s9.2-1.8,12.7-5.4ZM560.3,122.6c-8,0-14.7-2.9-20.1-8.7-5.4-5.9-8.2-13.3-8.2-22.4s2.7-16.5,8.1-22.2c5.4-5.7,12.2-8.6,20.2-8.6s8.8,1.1,12.4,3.3c3.6,2.1,6.4,4.9,8.4,8.4v-31.2h12.5v80.5h-12.5v-11.2c-2,3.7-4.8,6.7-8.4,8.9-3.6,2.2-7.7,3.3-12.4,3.3Z"/>
  <path class="cls-1" d="M648.5,61.6h12.4v59.9h-12.4v-9.5c-3.9,6.9-10.3,10.3-19.1,10.3s-12.3-2.2-16.8-6.6c-4.4-4.5-6.5-10.8-6.5-18.8v-35.4h12.3v33.5c0,5.4,1.3,9.5,4,12.4,2.7,2.8,6.3,4.2,11,4.2s8.3-1.4,11-4.2c2.8-2.9,4.1-7,4.1-12.4v-33.5Z"/>
  <path class="cls-1" d="M699.3,122.6c-8.7,0-15.8-2.8-21.2-8.5-5.4-5.7-8.2-13.1-8.2-22.4s2.7-16.9,8.2-22.5c5.5-5.7,12.6-8.5,21.2-8.5s13.2,1.7,18,5.2c4.8,3.4,8,8.3,9.7,14.7h-13.4c-2.2-6.3-7-9.5-14.3-9.5s-9.1,1.8-12.2,5.4c-3,3.6-4.5,8.6-4.5,15s1.5,11.5,4.5,15.1c3,3.6,7.1,5.4,12.2,5.4s11.9-3.2,14.3-9.5h13.4c-1.7,6.1-5,11-9.8,14.6-4.8,3.6-10.7,5.3-17.8,5.3Z"/>
  <path class="cls-1" d="M765,71.8h-14.6v33.2c0,2.2.5,3.9,1.5,4.9,1.1.9,2.9,1.4,5.4,1.4h7.6v10.3h-9.8c-11.5,0-17.3-5.5-17.3-16.6v-33.2h-7.1v-10.1h7.1v-14.9h12.5v14.9h14.6v10.1Z"/>
  <path class="cls-1" d="M774.5,87.4v-10.4h44.7v10.4h-44.7Z"/>
  <path class="cls-1" d="M833.6,46h12.4v66.2h25.6v9.5h-38V46Z"/>
  <path class="cls-1" d="M903.9,122.6c-8.7,0-15.8-2.8-21.2-8.5-5.4-5.7-8.2-13.2-8.2-22.5s2.8-16.8,8.3-22.4c5.5-5.7,12.6-8.5,21.3-8.5s15.9,2.7,21.3,8.2c5.4,5.4,8.2,12.4,8.2,21.1s-.1,4.1-.4,5.9h-45.9c.3,5,2,9,5,12,3.1,2.9,7,4.4,11.6,4.4,6.7,0,11.5-2.8,14.3-8.4h13.4c-1.8,5.5-5.1,10-9.9,13.6-4.8,3.5-10.7,5.2-17.7,5.2ZM920.7,87.3c0-4.9-1.7-8.8-4.9-11.8-3.2-3-7.1-4.5-11.6-4.5s-8.4,1.5-11.5,4.5c-3,2.9-4.8,6.8-5.2,11.8h33.3Z"/>
  <path class="cls-1" d="M982,106.4c3.6-3.7,5.4-8.6,5.4-14.8s-1.8-11.1-5.4-14.7c-3.6-3.6-7.8-5.4-12.7-5.4s-9.2,1.8-12.8,5.3c-3.6,3.6-5.3,8.4-5.3,14.6s1.8,11.1,5.3,14.9c3.6,3.7,7.9,5.5,12.8,5.5s9.2-1.8,12.7-5.4ZM966.7,122.6c-8,0-14.7-2.9-20.1-8.7-5.4-5.9-8.2-13.3-8.2-22.4s2.7-16.5,8.1-22.2c5.4-5.7,12.2-8.6,20.2-8.6s8.8,1.1,12.4,3.3c3.6,2.1,6.4,4.9,8.4,8.4v-31.2h12.5v80.5h-12.5v-11.2c-2,3.7-4.8,6.7-8.4,8.9-3.6,2.2-7.7,3.3-12.4,3.3Z"/>
  <path class="cls-1" d="M748.5,250.8c-8.7,0-15.8-2.8-21.2-8.5-5.4-5.7-8.2-13.2-8.2-22.5s2.8-16.8,8.3-22.4c5.5-5.7,12.6-8.5,21.3-8.5s15.9,2.7,21.3,8.2c5.4,5.4,8.2,12.4,8.2,21.1s-.1,4.1-.4,5.9h-45.9c.3,5,2,9,5,12,3.1,2.9,7,4.4,11.6,4.4,6.7,0,11.5-2.8,14.3-8.4h13.4c-1.8,5.5-5.1,10-9.9,13.6-4.8,3.5-10.7,5.2-17.7,5.2ZM765.3,215.5c0-4.9-1.7-8.8-4.9-11.8-3.2-3-7.1-4.5-11.6-4.5s-8.4,1.5-11.5,4.5c-3,2.9-4.8,6.8-5.2,11.8h33.3Z"/>
  <path class="cls-1" d="M686.5,250.8c-8.7,0-15.8-2.8-21.2-8.5-5.4-5.7-8.2-13.1-8.2-22.4s2.7-16.9,8.2-22.5c5.5-5.7,12.6-8.5,21.2-8.5s13.2,1.7,18,5.2c4.8,3.4,8,8.3,9.7,14.7h-13.4c-2.2-6.3-7-9.5-14.3-9.5s-9.1,1.8-12.2,5.4c-3,3.6-4.5,8.6-4.5,15s1.5,11.5,4.5,15.1c3,3.6,7.1,5.4,12.2,5.4s11.9-3.2,14.3-9.5h13.4c-1.7,6.1-5,11-9.8,14.6-4.8,3.6-10.7,5.3-17.8,5.3Z"/>
  <path class="cls-1" d="M606.3,189.9v9.5c4-7,10.4-10.4,19.1-10.4s12.3,2.2,16.6,6.7c4.4,4.5,6.6,10.8,6.6,18.8v35.4h-12.3v-33.5c0-5.4-1.3-9.5-4-12.3-2.7-2.9-6.3-4.4-11-4.4s-8.3,1.5-11.1,4.4c-2.7,2.8-4,6.9-4,12.3v33.5h-12.4v-59.9h12.4Z"/>
  <path class="cls-1" d="M562.9,234.6c3.6-3.7,5.4-8.6,5.4-14.8s-1.8-11.1-5.4-14.7c-3.6-3.6-7.8-5.4-12.7-5.4s-9.2,1.8-12.8,5.3c-3.6,3.6-5.3,8.4-5.3,14.6s1.8,11.1,5.3,14.9c3.6,3.7,7.9,5.5,12.8,5.5s9.2-1.8,12.7-5.4ZM547.6,250.8c-8,0-14.7-2.9-20.1-8.7-5.4-5.9-8.2-13.3-8.2-22.4s2.7-16.5,8.1-22.2c5.4-5.7,12.2-8.6,20.2-8.6s8.8,1.1,12.4,3.3c3.6,2.1,6.4,4.9,8.4,8.4v-10.7h12.5v59.9h-12.5v-11.2c-2,3.7-4.8,6.7-8.4,8.9-3.6,2.2-7.7,3.3-12.4,3.3Z"/>
  <path class="cls-1" d="M512.1,174c0,2.2-.8,4.1-2.3,5.7s-3.4,2.3-5.7,2.3-4-.8-5.6-2.3-2.3-3.4-2.3-5.7.8-4.1,2.3-5.7c1.5-1.5,3.4-2.3,5.6-2.3s4.1.8,5.7,2.3c1.5,1.5,2.3,3.4,2.3,5.7ZM498,249.8v-59.9h12.4v59.9h-12.4Z"/>
  <path class="cls-1" d="M472.6,249.8v-80.5h12.4v80.5h-12.4Z"/>
  <path class="cls-1" d="M447.2,249.8v-80.5h12.4v80.5h-12.4Z"/>
  <path class="cls-1" d="M425.6,249.8l-5.4-15.4h-31.7l-5.4,15.4h-12.9l27.1-75.7h14.4l27.1,75.7h-13.1ZM391.9,224.7h24.9l-12.4-35.6-12.5,35.6Z"/>
</svg>