<svg xmlns="http://www.w3.org/2000/svg" viewBox="0 0 24 24" fill="#000000">
  <path d="M12.5 2C7.26 2 3 6.26 3 11.5c0 3.54 1.95 6.63 4.83 8.26.43.24.97.12 1.21-.31.24-.43.12-.97-.31-1.21C6.26 16.77 5 14.28 5 11.5 5 7.36 8.36 4 12.5 4c3.87 0 7.07 2.92 7.45 6.68.06.5.48.87.98.82.5-.06.87-.48.82-.98C21.23 5.57 17.27 2 12.5 2z"/>
  <path d="M12.5 6c-3.04 0-5.5 2.46-5.5 5.5 0 2.03 1.1 3.8 2.73 4.76.43.25.97.11 1.22-.32.25-.43.11-.97-.32-1.22C9.58 14.08 9 12.86 9 11.5 9 9.57 10.57 8 12.5 8c1.76 0 3.22 1.3 3.47 2.99.07.49.52.84 1.01.77.49-.07.84-.52.77-1.01C17.37 7.84 15.15 6 12.5 6z"/>
  <circle cx="12.5" cy="11.5" r="2"/>
</svg>
